<svg xmlns="http://www.w3.org/2000/svg" viewBox="0 0 863 768" fill="none"><g><path fill="#43B883" d="M431.5 0c-6.7 0-13.4 1.7-19.3 5L19.3 217.7C7.2 224.6 0 237.5 0 251.5v265c0 14 7.2 26.9 19.3 33.8l393 212.7c5.9 3.2 12.6 5 19.3 5s13.4-1.7 19.3-5l393-212.7c12.1-6.9 19.3-19.8 19.3-33.8v-265c0-14-7.2-26.9-19.3-33.8L450.8 5c-5.9-3.3-12.6-5-19.3-5zm0 44.2l374.2 202.7c2.6 1.4 4.3 4.1 4.3 7.1v259.9c0 3-1.6 5.7-4.3 7.1l-374.2 202.7c-2.6 1.4-5.9 1.4-8.5 0L48.8 520.9c-2.6-1.4-4.3-4.1-4.3-7.1V253.9c0-3 1.6-5.7 4.3-7.1L423 44.2c2.6-1.4 5.9-1.4 8.5 0z"/></g></svg>